<!-- icon666.com - MILLIONS vector ICONS FREE --><svg version="1.1" id="Capa_1" xmlns="http://www.w3.org/2000/svg" xmlns:xlink="http://www.w3.org/1999/xlink" x="0px" y="0px" viewBox="0 0 384 384" style="enable-background:new 0 0 384 384;" xml:space="preserve"><polygon style="fill:#FF7043;" points="320,16 314.16,80 69.84,80 64,16 "></polygon><polygon style="fill:#4DD0E1;" points="314.16,80 288,368 96,368 69.84,80 "></polygon><g><path style="fill:#012E52;" d="M344,0H40c-8.832,0-16,7.168-16,16s7.168,16,16,16h9.392l30.68,337.448 C80.816,377.688,87.72,384,96,384h192c8.28,0,15.184-6.312,15.936-14.552L334.608,32H344c8.832,0,16-7.168,16-16S352.832,0,344,0z M273.384,352H110.616L87.344,96h209.32L273.384,352z M299.568,64H84.432L81.52,32h220.96L299.568,64z"></path><path style="fill:#012E52;" d="M220.288,177.808c-6.248,6.248-6.248,16.376,0,22.624c7.552,7.56,11.712,17.6,11.712,28.288 c0,12.104-5.52,22.84-14.04,30.184c-1.312-3.104-3.552-5.832-6.696-7.648c-7.648-4.408-17.44-1.776-21.848,5.888l-11.28,19.6 c-0.152,0.264-0.24,0.56-0.376,0.832c-0.248,0.496-0.488,0.992-0.688,1.52c-0.176,0.472-0.312,0.96-0.448,1.448 c-0.136,0.504-0.272,1.008-0.352,1.536c-0.096,0.552-0.136,1.104-0.168,1.672c-0.024,0.32-0.104,0.632-0.104,0.968 c0,0.176,0.048,0.336,0.048,0.504c0.016,0.552,0.088,1.096,0.168,1.648c0.072,0.528,0.136,1.048,0.256,1.552 c0.032,0.152,0.032,0.304,0.072,0.448c0.088,0.328,0.248,0.632,0.36,0.952c0.184,0.536,0.36,1.072,0.6,1.576 c0.2,0.44,0.448,0.848,0.688,1.264c0.272,0.48,0.544,0.952,0.872,1.392c0.288,0.4,0.616,0.768,0.936,1.136 c0.352,0.408,0.704,0.8,1.096,1.168c0.36,0.336,0.744,0.632,1.136,0.936c0.432,0.336,0.872,0.664,1.336,0.96 c0.152,0.096,0.288,0.224,0.44,0.32l19.6,11.28c2.528,1.464,5.272,2.144,7.976,2.144c5.536,0,10.92-2.88,13.88-8.024 c2.248-3.904,2.64-8.36,1.496-12.376c22.064-12.32,37.04-35.872,37.04-62.888c0-19.232-7.488-37.32-21.088-50.912 C236.672,171.56,226.528,171.56,220.288,177.808z"></path><path style="fill:#012E52;" d="M194.584,190.856l11.28-19.6c0.152-0.264,0.24-0.56,0.376-0.832c0.248-0.496,0.488-0.992,0.688-1.52 c0.176-0.472,0.312-0.96,0.448-1.448c0.136-0.504,0.272-1.008,0.352-1.536c0.096-0.552,0.136-1.104,0.168-1.672 c0.024-0.32,0.104-0.632,0.104-0.968c0-0.176-0.048-0.336-0.048-0.504c-0.016-0.552-0.088-1.096-0.168-1.648 c-0.072-0.528-0.136-1.048-0.256-1.552c-0.032-0.152-0.032-0.304-0.072-0.448c-0.088-0.328-0.248-0.632-0.36-0.952 c-0.184-0.536-0.36-1.072-0.6-1.576c-0.2-0.44-0.448-0.848-0.688-1.264c-0.272-0.48-0.544-0.952-0.872-1.392 c-0.288-0.4-0.616-0.768-0.936-1.136c-0.352-0.408-0.704-0.8-1.096-1.168c-0.36-0.336-0.744-0.632-1.136-0.936 c-0.432-0.336-0.872-0.664-1.336-0.96c-0.152-0.096-0.288-0.224-0.44-0.32l-19.6-11.28c-7.664-4.416-17.44-1.776-21.848,5.888 c-2.248,3.904-2.64,8.36-1.496,12.376C134.976,168.712,120,192.272,120,219.28c0,19.232,7.488,37.32,21.088,50.912 c3.12,3.128,7.216,4.688,11.312,4.688s8.192-1.56,11.312-4.688c6.248-6.248,6.248-16.376,0-22.624 c-7.552-7.56-11.712-17.6-11.712-28.288c0-12.104,5.52-22.84,14.04-30.184c1.312,3.104,3.552,5.832,6.696,7.648 c2.512,1.448,5.256,2.136,7.968,2.136C186.24,198.88,191.624,196,194.584,190.856z"></path></g></svg>