<svg xmlns="http://www.w3.org/2000/svg"  viewBox="0 0 48 48" width="48px" height="48px" baseProfile="basic"><path fill="#fca66c" d="M40,10H8c-2.757,0-5,2.243-5,5v20c0,2.757,2.243,5,5,5h32c2.757,0,5-2.243,5-5V15	C45,12.243,42.757,10,40,10z"/><path fill="#324561" d="M30,12c-0.553,0-1-0.447-1-1V8c0-0.552-0.448-1-1-1h-8c-0.552,0-1,0.448-1,1v3c0,0.553-0.447,1-1,1	s-1-0.447-1-1V8c0-1.654,1.346-3,3-3h8c1.654,0,3,1.346,3,3v3C31,11.553,30.553,12,30,12z"/><path fill="#324561" d="M37,24h-3c-1.103,0-2-0.897-2-2v-1H16v1c0,1.103-0.897,2-2,2h-3c-1.103,0-2-0.897-2-2v-1H3	c-0.553,0-1-0.447-1-1s0.447-1,1-1h7c0.553,0,1,0.447,1,1v2h3v-2c0-0.553,0.447-1,1-1h18c0.553,0,1,0.447,1,1v2h3v-2	c0-0.553,0.447-1,1-1h7c0.553,0,1,0.447,1,1s-0.447,1-1,1h-6v1C39,23.103,38.103,24,37,24z"/></svg>