<svg xmlns="http://www.w3.org/2000/svg"  viewBox="0 0 48 48" width="48px" height="48px" baseProfile="basic"><path fill="#fc9c9c" d="M38,14H10c-2.757,0-5,2.243-5,5v18c0,2.757,2.243,5,5,5h28c2.757,0,5-2.243,5-5V19	C43,16.243,40.757,14,38,14z"/><path fill="#324561" d="M34,16c-0.553,0-1-0.447-1-1V8c0-3.309-2.691-6-6-6h-6c-3.309,0-6,2.691-6,6v7c0,0.553-0.447,1-1,1	s-1-0.447-1-1V8c0-4.411,3.589-8,8-8h6c4.411,0,8,3.589,8,8v7C35,15.553,34.553,16,34,16z"/><path fill="#324561" d="M24,35c-3.309,0-6-2.691-6-6s2.691-6,6-6s6,2.691,6,6S27.309,35,24,35z M24,25c-2.206,0-4,1.794-4,4	s1.794,4,4,4s4-1.794,4-4S26.206,25,24,25z"/></svg>